<?xml version="1.0" standalone="no"?>
<!DOCTYPE svg PUBLIC "-//W3C//DTD SVG 20010904//EN"
 "http://www.w3.org/TR/2001/REC-SVG-20010904/DTD/svg10.dtd">
<svg version="1.0" xmlns="http://www.w3.org/2000/svg"
 width="262.000000pt" height="262.000000pt" viewBox="0 0 262.000000 262.000000"
 preserveAspectRatio="xMidYMid meet">
<metadata>
Created by potrace 1.11, written by Peter Selinger 2001-2013
</metadata>
<g transform="translate(0.000000,262.000000) scale(0.100000,-0.100000)"
fill="#000000" stroke="none">
<path d="M1178 2595 c-2 -1 -25 -5 -53 -9 -67 -8 -197 -41 -265 -68 -107 -42
-265 -128 -317 -173 -6 -5 -33 -28 -59 -50 -227 -187 -389 -478 -438 -785 -13
-78 -14 -322 -2 -390 14 -81 52 -221 75 -275 33 -77 48 -108 84 -170 195 -339
557 -582 937 -631 78 -9 257 -12 310 -3 25 4 66 10 92 13 217 29 494 174 671
351 282 282 412 646 374 1050 -7 76 -8 78 -31 176 -95 406 -430 768 -836 903
-78 26 -88 28 -209 50 -62 12 -323 20 -333 11z m327 -140 c144 -30 230 -60
346 -122 212 -111 388 -292 493 -506 60 -124 83 -193 104 -321 101 -601 -286
-1175 -888 -1316 -99 -23 -275 -31 -390 -17 -495 59 -908 457 -994 956 -12 71
-14 296 -3 366 66 416 378 784 777 915 83 28 129 39 190 46 30 3 57 8 59 10 7
6 271 -3 306 -11z"/>
<path d="M1037 2265 c-345 -106 -609 -388 -683 -730 -59 -270 -10 -534 141
-759 157 -236 398 -389 673 -430 91 -13 217 -14 289 -2 24 4 45 7 48 7 11 -3
72 33 111 65 61 49 100 114 113 187 13 75 8 122 -20 188 -30 68 -89 112 -326
242 -220 120 -304 178 -398 271 -81 80 -116 135 -151 234 -74 215 -33 452 105
605 38 42 115 103 166 130 41 22 24 20 -68 -8z"/>
<path d="M1322 2263 c-83 -17 -132 -43 -179 -97 -66 -75 -83 -171 -48 -277 14
-42 33 -69 84 -119 69 -68 144 -118 406 -270 88 -51 162 -95 165 -99 3 -3 23
-18 45 -32 147 -96 235 -218 264 -367 15 -79 12 -221 -6 -281 -7 -25 -12 -49
-10 -55 5 -15 103 125 145 209 77 153 111 304 106 475 -5 196 -61 362 -177
535 -48 71 -183 209 -196 200 -5 -3 -8 -24 -6 -48 16 -201 16 -214 1 -220 -22
-9 -43 17 -60 71 -62 204 -192 347 -346 379 -42 9 -133 7 -188 -4z"/>
</g>
</svg>
