<?xml version="1.0" standalone="no"?>
<!DOCTYPE svg PUBLIC "-//W3C//DTD SVG 20010904//EN"
 "http://www.w3.org/TR/2001/REC-SVG-20010904/DTD/svg10.dtd">
<svg version="1.0" xmlns="http://www.w3.org/2000/svg"
 width="260.000000pt" height="260.000000pt" viewBox="0 0 260.000000 260.000000"
 preserveAspectRatio="xMidYMid meet">
<metadata>
Created by potrace 1.11, written by Peter Selinger 2001-2013
</metadata>
<g transform="translate(0.000000,260.000000) scale(0.100000,-0.100000)"
fill="#000000" stroke="none">
<path d="M0 1300 l0 -1300 1300 0 1300 0 0 1300 0 1300 -1300 0 -1300 0 0
-1300z m1448 760 c73 -12 162 -44 192 -68 20 -17 20 -17 -18 -122 -21 -58 -43
-103 -48 -101 -5 3 -36 17 -69 32 -75 35 -184 55 -249 45 -36 -6 -58 -17 -89
-45 -37 -35 -41 -43 -45 -97 -3 -53 -1 -63 27 -101 36 -50 111 -102 249 -173
186 -95 254 -160 303 -289 30 -82 24 -234 -13 -306 -33 -65 -123 -149 -192
-181 -107 -49 -272 -67 -397 -44 -69 13 -187 55 -217 78 l-23 18 36 87 c20 49
40 98 45 112 l9 23 75 -37 c207 -105 427 -69 443 72 12 103 -61 195 -219 277
-240 124 -301 172 -352 280 -28 59 -31 74 -31 165 0 89 4 106 28 157 51 104
147 179 270 213 62 16 198 19 285 5z"/>
</g>
</svg>
